<?xml version="1.0" encoding="UTF-8" standalone="no"?><!DOCTYPE svg PUBLIC "-//W3C//DTD SVG 1.1//EN" "http://www.w3.org/Graphics/SVG/1.1/DTD/svg11.dtd"><svg width="100%" height="100%" viewBox="0 0 256 256" version="1.1" xmlns="http://www.w3.org/2000/svg" xmlns:xlink="http://www.w3.org/1999/xlink" xml:space="preserve" xmlns:serif="http://www.serif.com/" style="fill-rule:evenodd;clip-rule:evenodd;stroke-linejoin:round;stroke-miterlimit:1.41421;"><rect id="Icon" x="0" y="0" width="256" height="256" style="fill:none;"/><clipPath id="_clip1"><rect id="Icon1" serif:id="Icon" x="0" y="0" width="256" height="256"/></clipPath><g clip-path="url(#_clip1)"><rect id="Background" x="-3.851" y="-3.851" width="263.702" height="263.702" style="fill:url(#_Linear2);"/><path id="Icon2" serif:id="Icon" d="M149.204,32.58l-74.196,0c-7.818,0 -14.155,6.35 -14.155,14.188l0,162.464c0,7.836 6.297,14.188 14.118,14.188l106.058,0c7.798,0 14.118,-6.349 14.118,-14.071l0,-123.758l0,-3.534l-42.408,-49.477l-3.535,0Zm-3.534,7.068l-70.712,0c-3.887,0 -7.037,3.218 -7.037,7.036l0,162.632c0,3.886 3.214,7.036 7.068,7.036l106.022,0c3.904,0 7.068,-3.145 7.068,-7.022l0,-120.205l-28.287,0c-7.799,0 -14.122,-6.266 -14.122,-14.178l0,-35.299Zm7.069,3.534l0,31.745c0,3.938 3.185,7.13 7.045,7.13l26.174,0l-33.219,-38.875Zm-21.205,95.42l-14.136,56.545l7.068,0l14.136,-56.545l-7.068,0Zm-28.273,49.477l-21.204,-21.204l21.204,-21.205l4.948,4.948l-16.257,16.257l16.257,16.257l-4.948,4.947Zm49.478,0l21.204,-21.204l-21.204,-21.205l-4.948,4.948l16.257,16.257l-16.257,16.257l4.948,4.947Z"/></g><defs><linearGradient id="_Linear2" x1="0" y1="0" x2="1" y2="0" gradientUnits="userSpaceOnUse" gradientTransform="matrix(263.702,-263.702,263.702,263.702,-3.85078,259.851)"><stop offset="0" style="stop-color:#00a650;stop-opacity:1"/><stop offset="1" style="stop-color:#00a3e6;stop-opacity:1"/></linearGradient></defs></svg>